<?xml version="1.0" encoding="UTF-8" standalone="no"?>
<!DOCTYPE svg PUBLIC "-//W3C//DTD SVG 1.1//EN" "http://www.w3.org/Graphics/SVG/1.1/DTD/svg11.dtd">
<svg width="100%" height="100%" viewBox="0 0 58 29" version="1.1" xmlns="http://www.w3.org/2000/svg" xmlns:xlink="http://www.w3.org/1999/xlink" xml:space="preserve" xmlns:serif="http://www.serif.com/" style="fill-rule:evenodd;clip-rule:evenodd;stroke-linecap:round;stroke-linejoin:round;stroke-miterlimit:1.5;">
    <g transform="matrix(1,0,0,1,-17.5,-7.5)">
        <g transform="matrix(0.9,0.0333333,0.0333333,0.988889,1.9,-0.966667)">
            <path d="M26,21L35.178,17.927" style="fill:none;stroke:white;stroke-width:0.85px;"/>
        </g>
        <g transform="matrix(0.519252,-0.0383084,0.527003,0.800799,12.1738,6.97679)">
            <path d="M26,21L37.106,17.112" style="fill:none;stroke:white;stroke-width:0.91px;"/>
        </g>
        <g transform="matrix(0.519252,-0.0383084,0.527003,0.800799,20.4541,7.22351)">
            <path d="M30.654,21.223L34.774,17.162" style="fill:none;stroke:white;stroke-width:0.91px;"/>
        </g>
        <g transform="matrix(0.519252,-0.0383084,0.527003,0.800799,28.2182,6.92623)">
            <path d="M40.065,20.424L36.454,16.376" style="fill:none;stroke:white;stroke-width:0.91px;"/>
        </g>
        <path d="M18,22C27.504,23.936 36.797,24.858 45.908,24.89C55.808,24.924 65.493,23.908 75,22" style="fill:none;stroke:white;stroke-width:0.83px;"/>
        <g transform="matrix(0.54386,0,0,0.308126,21.2105,20.2212)">
            <path d="M18,22C27.504,23.936 36.797,24.858 45.908,24.89C55.808,24.924 65.493,23.908 75,22" style="fill:none;stroke:white;stroke-width:1.89px;"/>
        </g>
        <path d="M31.107,16.951C41.559,20.707 51.805,20.397 61.893,16.951" style="fill:none;stroke:white;stroke-width:0.83px;"/>
    </g>
    <g transform="matrix(1.05681,0,8.13491e-17,1.05681,-16.856,-5.29736)">
        <path d="M45.819,16.849L40.944,16.849L42.569,16.849L40.944,16.037L40.944,15.224C40.944,15.461 40.859,15.664 40.69,15.834C40.521,15.969 40.335,16.037 40.132,16.037L39.319,16.037C39.319,15.597 39.471,15.224 39.776,14.92C40.081,14.581 40.47,14.412 40.944,14.412L42.569,14.412C42.095,14.412 41.706,14.259 41.401,13.955C41.096,13.65 40.944,13.261 40.944,12.787C40.707,12.787 40.504,12.719 40.335,12.584C40.199,12.414 40.132,12.211 40.132,11.974C40.132,11.771 40.199,11.585 40.335,11.416C40.504,11.246 40.707,11.162 40.944,11.162L40.944,11.974L42.518,12.787L42.569,12.787L43.382,11.974L44.194,12.787L45.819,11.974L45.819,11.162C46.022,11.162 46.208,11.246 46.378,11.416C46.547,11.585 46.632,11.771 46.632,11.974C46.632,12.211 46.547,12.414 46.378,12.584C46.208,12.719 46.022,12.787 45.819,12.787L45.768,12.787C45.768,13.261 45.616,13.65 45.311,13.955C45.007,14.259 44.634,14.412 44.194,14.412L45.819,14.412C46.259,14.412 46.632,14.581 46.936,14.92C47.275,15.224 47.444,15.597 47.444,16.037L46.632,16.037C46.395,16.037 46.191,15.969 46.022,15.834C45.887,15.664 45.819,15.461 45.819,15.224L45.819,16.037L44.194,16.849L45.819,16.849ZM43.382,11.974L42.569,11.213L42.569,11.162L40.944,11.162L40.944,10.349C40.944,10.146 41.012,9.96 41.147,9.791C41.316,9.621 41.52,9.537 41.757,9.537L41.757,8.724L42.569,8.724L42.569,9.537L44.194,9.537L44.194,8.724L45.007,8.724L45.007,9.537C45.21,9.537 45.396,9.621 45.565,9.791C45.734,9.96 45.819,10.146 45.819,10.349L45.819,11.162L44.143,11.162L43.382,11.974ZM40.944,8.724L40.944,7.912L41.757,7.912L41.757,8.724L40.944,8.724ZM45.007,8.724L45.007,7.912L45.819,7.912L45.819,8.724L45.007,8.724Z" style="fill:rgb(186,186,186);fill-rule:nonzero;stroke:white;stroke-width:0.95px;stroke-linecap:butt;stroke-miterlimit:2;"/>
    </g>
    <g transform="matrix(1,0,0,1,-17.5,-7.5)">
        <path d="M31.107,27.049C23.225,25.982 18,24.118 18,22C18,19.882 23.225,18.018 31.107,16.951C33.497,11.716 39.491,8 46.5,8C53.509,8 59.503,11.716 61.893,16.951C69.775,18.018 75,19.882 75,22C75,24.118 69.775,25.982 61.893,27.049C59.503,32.284 53.509,36 46.5,36C39.491,36 33.497,32.284 31.107,27.049Z" style="fill:none;stroke:white;stroke-width:1px;"/>
    </g>
    <g transform="matrix(0.448085,0,0,0.448085,7.57062,13.2966)">
        <g transform="matrix(20.8294,0,0,20.8294,58.0174,29.9695)">
        </g>
        <text x="38.188px" y="29.969px" style="font-family:'Computerfont';font-size:20.829px;fill:white;">sd</text>
    </g>
</svg>
